<svg width="177" height="70" viewBox="0 0 177 70" fill="none" xmlns="http://www.w3.org/2000/svg">
<g clip-path="url(#clip0_29_329)">
<path d="M9.08665 6.74902H17.0804L26.4184 62.6614H20.1567L18.5503 51.9862H8.31623L6.84096 62.6614H0.513672L9.08665 6.74902ZM9.05387 46.6486H17.7197L13.2557 17.1052H13.1573L9.0484 46.6486H9.05387Z" fill="#701BCC"/>
<path d="M47.9904 6.74902H54.6018V48.3034C54.6018 53.5329 53.7713 57.3454 52.1157 59.7411C50.4601 62.1368 47.5861 63.332 43.499 63.332C39.4119 63.332 36.5215 62.1368 34.8331 59.7411C33.1448 57.3454 32.2979 53.5329 32.2979 48.3034V6.74902H38.942V48.1466C38.942 51.8726 39.095 54.1061 39.4065 54.8362C39.7179 55.5662 40.0458 56.1449 40.3845 56.5667C40.9856 57.3725 42.0237 57.7727 43.499 57.7727C44.9743 57.7727 46.0671 57.3292 46.7719 56.4369C47.4768 55.55 47.8593 54.2251 47.9139 52.4675C47.9685 50.7099 47.9958 49.2822 47.9958 48.179V6.74902H47.9904Z" fill="#701BCC"/>
<path d="M63.5244 6.74902H75.3703C78.7307 6.74902 81.1457 7.43583 82.6265 8.81485C84.1017 10.1939 84.9924 12.5301 85.2929 15.8343C85.424 17.1917 85.4841 19.3008 85.4841 22.1724C85.4841 25.044 85.1016 27.4505 84.3476 29.4028C83.5881 31.3496 82.244 32.6097 80.3207 33.1829C81.7304 33.4154 82.8013 34.1509 83.5335 35.3893C84.2602 36.6277 84.7738 38.5962 85.0743 41.3002C85.3748 43.9987 85.5224 48.0168 85.5224 53.3436C85.5224 58.6704 85.6918 61.7799 86.036 62.6668H79.4246C79.0803 61.9908 78.911 55.7068 78.911 43.8257C78.911 39.8238 78.5121 37.4984 77.7253 36.8549C76.933 36.2113 75.7364 35.8868 74.13 35.8868L70.1795 35.6651V62.6668H63.5353V6.74902H63.5244ZM78.9 20.4419C78.9 16.1426 78.5121 13.6549 77.7307 12.9789C76.9494 12.3029 75.8184 11.9623 74.3431 11.9623H70.1686V30.8359H74.4032C75.6872 30.8359 76.627 30.5925 77.2281 30.1058C77.8291 29.6191 78.2553 28.6889 78.5121 27.3099C78.7689 25.9363 78.9 23.7731 78.9 20.8312V20.4473V20.4419Z" fill="#701BCC"/>
<path d="M100.182 6.74902H108.176L117.519 62.6614H111.257L109.651 51.9862H99.4114L97.9361 62.6614H91.6143L100.187 6.74902H100.182ZM100.149 46.6486H108.815L104.351 17.1052H104.252L100.144 46.6486H100.149Z" fill="#701BCC"/>
<path d="M0 1.62231H177H0Z" fill="#701BCC"/>
<path d="M0 1.62231H177" stroke="#701BCC" stroke-width="6" stroke-miterlimit="10"/>
<path d="M0 68.3777H177H0Z" fill="#701BCC"/>
<path d="M0 68.3777H177" stroke="#701BCC" stroke-width="6" stroke-miterlimit="10"/>
<path d="M130.611 14.1849C130.611 8.22536 133.19 5.24561 138.343 5.24561C140.255 5.24561 141.911 5.47815 143.31 5.93782V10.6589C142.419 10.5291 141.452 10.4588 140.408 10.4588C139.365 10.4588 138.605 10.74 138.141 11.3025C137.676 11.8649 137.441 12.7356 137.441 13.9253V16.5968L150.446 16.5211L148.806 21.0367H137.441V64.1756H130.606V21.5721H126.306V16.5914H130.606V14.1849H130.611Z" fill="white"/>
<path d="M147.146 6.01343H153.757V11.9838H147.146V6.01343ZM147.146 16.3696H153.724V64.0241H147.146V16.3696Z" fill="white"/>
<path d="M164.352 8.11182H170.93V16.7537H176.132V21.5829H170.93V56.372C170.93 57.5996 171.22 58.3675 171.799 58.6758C172.378 58.984 173.843 59.1355 176.198 59.1355V64.3162H171.673C168.635 64.3162 166.652 63.77 165.734 62.6776C164.816 61.5852 164.352 59.6763 164.352 56.9453V21.5829H159.953V16.7537H164.352V8.11182Z" fill="white"/>
</g>
<defs>
<clipPath id="clip0_29_329">
<rect width="177" height="70" fill="white"/>
</clipPath>
</defs>
</svg>
