<svg width="326" height="197" viewBox="0 0 326 197" fill="none" xmlns="http://www.w3.org/2000/svg">
<path d="M0 160.919H323.94Z" fill="white"/>
<path d="M0 160.919H323.94" stroke="white" stroke-width="6" stroke-miterlimit="10"/>
<path d="M2.93726 139L18.6222 35.6086H33.2497L50.3446 139H38.8893L35.952 119.262H17.2123L14.51 139H2.93726ZM18.5635 109.392H34.4246L26.2591 54.7595H26.0828L18.5635 109.392ZM81.4795 140.234C76.3882 140.234 72.3348 139.235 69.3192 137.238C66.3428 135.201 64.2084 132.127 62.916 128.015C61.6236 123.903 60.9774 118.713 60.9774 112.447V35.6086H73.1377V112.153C73.1377 115.874 73.2747 119.066 73.5489 121.729C73.823 124.392 74.5476 126.429 75.7225 127.838C76.8974 129.248 78.8164 129.953 81.4795 129.953C84.1818 129.953 86.1008 129.248 87.2365 127.838C88.3722 126.429 89.0576 124.412 89.2926 121.788C89.5667 119.125 89.7038 115.933 89.7038 112.212V35.6086H101.805V112.447C101.805 118.713 101.179 123.903 99.9254 128.015C98.6722 132.127 96.5574 135.201 93.581 137.238C90.6437 139.235 86.6099 140.234 81.4795 140.234ZM117.843 139V35.6086H139.52C145.003 35.6086 149.056 36.5877 151.68 38.5459C154.304 40.4649 156.007 43.3825 156.791 47.2989C157.613 51.1761 158.024 56.0715 158.024 61.9852C158.024 68.3688 157.378 73.4405 156.086 77.2001C154.793 80.9598 152.287 83.388 148.566 84.4845C150.446 84.7978 151.993 85.6007 153.207 86.8931C154.46 88.1855 155.44 90.2024 156.145 92.9438C156.849 95.6853 157.339 99.3666 157.613 103.988C157.926 108.57 158.083 114.347 158.083 121.318C158.083 121.983 158.083 122.943 158.083 124.196C158.083 125.449 158.103 126.82 158.142 128.308C158.181 129.797 158.22 131.265 158.259 132.714C158.338 134.163 158.436 135.456 158.553 136.591C158.671 137.688 158.827 138.491 159.023 139H146.922C146.765 138.648 146.628 137.864 146.51 136.65C146.393 135.436 146.295 133.83 146.217 131.833C146.138 129.836 146.08 127.466 146.04 124.725C146.001 121.944 145.982 118.85 145.982 115.443C145.982 111.997 145.982 108.237 145.982 104.164C145.982 100.248 145.805 97.2714 145.453 95.2349C145.14 93.1592 144.356 91.7298 143.103 90.9465C141.889 90.1241 139.931 89.6345 137.229 89.4779L130.003 89.0667V139H117.843ZM130.003 80.1374H137.757C139.99 80.1374 141.693 79.7066 142.868 78.845C144.082 77.9442 144.905 76.1819 145.335 73.5579C145.766 70.8948 145.982 66.9197 145.982 61.6327V60.9277C145.982 56.5414 145.766 53.2321 145.335 50.9998C144.944 48.7283 144.161 47.201 142.986 46.4177C141.811 45.6344 140.029 45.2428 137.64 45.2428H130.003V80.1374ZM167.541 139L183.226 35.6086H197.854L214.948 139H203.493L200.556 119.262H181.816L179.114 139H167.541ZM183.167 109.392H199.028L190.863 54.7595H190.687L183.167 109.392Z" fill="white"/>
<path d="M234.749 139V59.7528H227.171V50.8823H234.749V48.8262C234.749 43.735 235.826 39.8187 237.98 37.0772C240.173 34.2966 243.639 32.9063 248.378 32.9063C250.689 32.9063 252.686 33.1021 254.37 33.4938C256.054 33.8462 256.974 34.0616 257.131 34.14V42.5405C255.564 42.3055 254.174 42.188 252.96 42.188C250.336 42.188 248.652 42.7363 247.908 43.8329C247.164 44.9295 246.792 46.4373 246.792 48.3563V50.8823H280.453V139H268.41V59.7528H246.792V139H234.749ZM268.41 44.3616V33.2588H280.453V44.3616H268.41ZM313.115 139.529C309.355 139.529 306.516 139.078 304.597 138.178C302.678 137.277 301.386 135.828 300.72 133.83C300.054 131.833 299.721 129.19 299.721 125.9V60.5165H291.673V51.5873H299.721V35.6086H311.764V51.5873H321.281V60.5165H311.764V124.842C311.764 126.331 311.96 127.447 312.351 128.191C312.743 128.896 313.624 129.366 314.995 129.601C316.366 129.836 318.5 129.953 321.398 129.953V139.529H313.115Z" fill="white"/>
<path d="M0 20.2832H323.94Z" fill="white"/>
<path d="M0 20.2832H323.94" stroke="white" stroke-width="6" stroke-miterlimit="10"/>
</svg>
